<svg xmlns="http://www.w3.org/2000/svg" viewBox="0 0 256 256" role="img" aria-label="ラベルプリンター">
  <defs>
    <linearGradient id="body" x1="42" y1="236" x2="214" y2="42" gradientUnits="userSpaceOnUse">
      <stop offset="0" stop-color="#eef1f1"/>
      <stop offset=".58" stop-color="#ffffff"/>
      <stop offset="1" stop-color="#cfd5d6"/>
    </linearGradient>
    <linearGradient id="face" x1="74" y1="56" x2="190" y2="202" gradientUnits="userSpaceOnUse">
      <stop offset="0" stop-color="#20242b"/>
      <stop offset=".6" stop-color="#0e1117"/>
      <stop offset="1" stop-color="#343942"/>
    </linearGradient>
    <linearGradient id="paper" x1="89" y1="117" x2="166" y2="204" gradientUnits="userSpaceOnUse">
      <stop offset="0" stop-color="#ffffff"/>
      <stop offset="1" stop-color="#f4f0e8"/>
    </linearGradient>
    <filter id="shadow" x="-20%" y="-20%" width="140%" height="140%">
      <feDropShadow dx="0" dy="12" stdDeviation="10" flood-color="#1f2429" flood-opacity=".22"/>
    </filter>
  </defs>
  <rect width="256" height="256" rx="54" fill="#f4f1ed"/>
  <g filter="url(#shadow)">
    <path d="M51 55c0-16 13-29 29-29h96c20 0 36 16 36 36v129c0 21-17 38-38 38H76c-19 0-35-16-35-35V70c0-6 4-12 10-15Z" fill="url(#body)"/>
    <path d="M72 44h112c9 0 16 7 16 16v127c0 12-10 22-22 22H72c-8 0-15-7-15-15V59c0-8 7-15 15-15Z" fill="url(#face)"/>
    <rect x="91" y="55" width="87" height="40" rx="6" fill="#dfe8e9" stroke="#687079" stroke-width="4"/>
    <rect x="78" y="105" width="28" height="25" rx="8" fill="#262b33" stroke="#05070a" stroke-width="3"/>
    <path d="M92 110v15M86 115c-5 7 0 12 6 12s11-5 7-12" fill="none" stroke="#fff" stroke-width="4" stroke-linecap="round"/>
    <rect x="113" y="108" width="26" height="23" rx="8" fill="#262b33" stroke="#05070a" stroke-width="3"/>
    <path d="m119 125 14-12m-13 0 13 12" stroke="#fff" stroke-width="3" stroke-linecap="round"/>
    <rect x="146" y="109" width="28" height="23" rx="8" fill="#262b33" stroke="#05070a" stroke-width="3"/>
    <path d="m158 115 7 5-7 5" fill="none" stroke="#fff" stroke-width="3" stroke-linecap="round" stroke-linejoin="round"/>
    <path d="M74 124h111c7 0 13 6 13 13v13H72v-24c0-1 1-2 2-2Z" fill="#0a0c11"/>
    <path d="M72 132h112l-13 73H89c-10 0-18-8-18-18l-3-50c0-3 2-5 4-5Z" fill="url(#paper)"/>
    <path d="M86 153h74M87 171h65M88 188h50" stroke="#2a2a2a" stroke-width="4" stroke-linecap="round"/>
    <path d="M97 143v17M103 143v17M112 143v17M125 143v17M132 143v17M145 143v17M151 143v17" stroke="#111" stroke-width="3"/>
    <path d="M95 199h76" stroke="#1f1f1f" stroke-width="5" stroke-linecap="round"/>
  </g>
</svg>
